# xmcd CD database file
#
# Track frame offsets:
#	150
#	13591
#	27495
#	43331
#	56086
#	73971
#	90548
#	102854
#	119631
#	136264
#	150886
#	165418
#	178390
#	189248
#	199912
#	213910
#	227738
#	239463
#	255043
#	274216
#	293312
#	308369
#
# Disc length: 4261 seconds
#
# Revision: 0
# Processed by: cddbd v1.5.1PL0 Copyright (c) Steve Scherf et al.
# Submitted via: CDex 1.51
#
DISCID=2d10a316
DTITLE=Variou - 30 let ceske country 2
DYEAR=2004
DGENRE=Country
TTITLE0=Michal Tucny a Fesacu - Sundej z hodin zavazi
TTITLE1=Karel Zich - Jak jdem tim zdejsim svetem
TTITLE2=Pavel Bobek - Pojd dal a zpivej
TTITLE3=Waldemar Matuska - Jen se priznej,ze ti shazim
TTITLE4=Petr Spaleny - Kdyz ji potkas
TTITLE5=Honza Vycital - Cadillac
TTITLE6=Karel zich - V zadech tahnu stin
TTITLE7=Tomas Linka a Fesaci - Pani ma se ma
TTITLE8=Petr Spaleny - Hrac
TTITLE9=Hoboes - Rezavy sporny
TTITLE10=Michal Tucny - Posledni kovboj
TTITLE11=Honza Vycital - Pivni dzip
TTITLE12=Waldemar Matuska,Olga Blechova a KTO - Kvete mak a slunce pali
TTITLE13=Poutnici - Panenka
TTITLE14=Wabi Danek - Na ceste
TTITLE15=Plavci - Inzenyrska
TTITLE16=Nada Urbankova,Karel Cernoch - Slecna sen
TTITLE17=Michal Tucny,Zdenek Rytir/ Chtel bych byt medvidkem
TTITLE18=Mirek Hoffmann - Ten sen jsem mival
TTITLE19=Michal Tucny - Usta do podkovy
TTITLE20=Poutnici - Blues o touze latat
TTITLE21=Vera Martinova - Maly dum nad skalou
EXTD=YEAR: 2004
EXTT0=
EXTT1=
EXTT2=
EXTT3=
EXTT4=
EXTT5=
EXTT6=
EXTT7=
EXTT8=
EXTT9=
EXTT10=
EXTT11=
EXTT12=
EXTT13=
EXTT14=
EXTT15=
EXTT16=
EXTT17=
EXTT18=
EXTT19=
EXTT20=
EXTT21=
PLAYORDER=
